<mxfile host="app.diagrams.net" modified="2022-01-17T05:05:03.989Z" agent="5.0 (Macintosh; Intel Mac OS X 10_15_7) AppleWebKit/537.36 (KHTML, like Gecko) Chrome/97.0.4692.71 Safari/537.36" etag="jG4h6YSynNtGmFGq6P3D" version="16.1.0" type="github">
  <diagram id="GQ-sk6Pwp3cStV5QQxBa" name="第 1 页">
    <mxGraphModel dx="-592" dy="165" grid="1" gridSize="10" guides="1" tooltips="1" connect="1" arrows="1" fold="1" page="1" pageScale="1" pageWidth="850" pageHeight="1100" math="0" shadow="0">
      <root>
        <mxCell id="0" />
        <mxCell id="1" parent="0" />
        <mxCell id="3D6CjDRyJNM9ixpx0kuB-1" value="" style="rounded=0;sketch=0;fontSize=6;dashed=1;" vertex="1" parent="1">
          <mxGeometry x="1359.9499999999998" y="136.16" width="9" height="16" as="geometry" />
        </mxCell>
        <mxCell id="3D6CjDRyJNM9ixpx0kuB-2" value="" style="rounded=0;sketch=0;fontSize=8;dashed=1;" vertex="1" parent="1">
          <mxGeometry x="1303.49" y="62.32" width="276.51" height="400" as="geometry" />
        </mxCell>
        <mxCell id="3D6CjDRyJNM9ixpx0kuB-3" value="" style="rounded=0;sketch=0;fontSize=6;dashed=1;" vertex="1" parent="1">
          <mxGeometry x="1360.4499999999998" y="136.16" width="11" height="16" as="geometry" />
        </mxCell>
        <mxCell id="3D6CjDRyJNM9ixpx0kuB-4" value="" style="rounded=0;fontSize=10;strokeWidth=1;" vertex="1" parent="1">
          <mxGeometry x="1480.5" y="80" width="80" height="40" as="geometry" />
        </mxCell>
        <mxCell id="3D6CjDRyJNM9ixpx0kuB-5" value="数据源1" style="rounded=0;fontSize=7;strokeWidth=1;" vertex="1" parent="1">
          <mxGeometry x="1487.18" y="86.75" width="30" height="10" as="geometry" />
        </mxCell>
        <mxCell id="3D6CjDRyJNM9ixpx0kuB-6" value="数据源2" style="rounded=0;fontSize=7;strokeWidth=1;" vertex="1" parent="1">
          <mxGeometry x="1525.74" y="86.75" width="30" height="10" as="geometry" />
        </mxCell>
        <mxCell id="3D6CjDRyJNM9ixpx0kuB-7" value="数据源k" style="rounded=0;fontSize=7;strokeWidth=1;" vertex="1" parent="1">
          <mxGeometry x="1525.51" y="105" width="30" height="10" as="geometry" />
        </mxCell>
        <mxCell id="3D6CjDRyJNM9ixpx0kuB-8" value="多数据源数据调度器" style="ellipse;shape=cloud;fontSize=10;strokeWidth=1;fontStyle=1" vertex="1" parent="1">
          <mxGeometry x="1319.88" y="65" width="119.76" height="70" as="geometry" />
        </mxCell>
        <mxCell id="3D6CjDRyJNM9ixpx0kuB-9" value="原始数据" style="text;strokeColor=none;fillColor=none;align=center;verticalAlign=middle;rounded=0;sketch=0;fontSize=10;fontStyle=1" vertex="1" parent="1">
          <mxGeometry x="1496.36" y="60" width="48.29" height="20" as="geometry" />
        </mxCell>
        <mxCell id="3D6CjDRyJNM9ixpx0kuB-10" value="" style="rounded=1;" vertex="1" parent="1">
          <mxGeometry x="1379.6399999999999" y="170" width="39.63" height="29.5" as="geometry" />
        </mxCell>
        <mxCell id="3D6CjDRyJNM9ixpx0kuB-11" value="" style="curved=1;endArrow=none;endFill=0;endSize=6;strokeWidth=1;" edge="1" parent="1">
          <mxGeometry width="50" height="50" relative="1" as="geometry">
            <mxPoint x="1411.8999999999999" y="223.10000000000002" as="sourcePoint" />
            <mxPoint x="1411.8999999999999" y="203.10000000000002" as="targetPoint" />
            <Array as="points">
              <mxPoint x="1420.8999999999996" y="213.1" />
              <mxPoint x="1400.8999999999996" y="213.1" />
            </Array>
          </mxGeometry>
        </mxCell>
        <mxCell id="3D6CjDRyJNM9ixpx0kuB-12" value="" style="curved=1;endArrow=none;endFill=0;" edge="1" parent="1">
          <mxGeometry width="50" height="50" relative="1" as="geometry">
            <mxPoint x="1389.0200000000002" y="223.10000000000002" as="sourcePoint" />
            <mxPoint x="1389.0200000000002" y="203.10000000000002" as="targetPoint" />
            <Array as="points">
              <mxPoint x="1398.0199999999998" y="213.1" />
              <mxPoint x="1378.0199999999998" y="213.1" />
            </Array>
          </mxGeometry>
        </mxCell>
        <mxCell id="3D6CjDRyJNM9ixpx0kuB-13" value="" style="shape=partialRectangle;top=0;bottom=0;fillColor=none;" vertex="1" parent="1">
          <mxGeometry x="1346.75" y="177.81" width="10" height="26" as="geometry" />
        </mxCell>
        <mxCell id="3D6CjDRyJNM9ixpx0kuB-14" value=" Window" style="text;strokeColor=none;fillColor=none;align=center;verticalAlign=middle;rounded=0;fontSize=7;fontStyle=1" vertex="1" parent="1">
          <mxGeometry x="1379.46" y="160" width="40" height="10" as="geometry" />
        </mxCell>
        <mxCell id="3D6CjDRyJNM9ixpx0kuB-15" value="数据队列" style="text;strokeColor=none;fillColor=none;align=center;verticalAlign=middle;rounded=0;fontSize=6;" vertex="1" parent="1">
          <mxGeometry x="1344.12" y="206.75" width="30.5" height="8.75" as="geometry" />
        </mxCell>
        <mxCell id="3D6CjDRyJNM9ixpx0kuB-16" value="工作线程" style="text;strokeColor=none;fillColor=none;align=center;verticalAlign=middle;rounded=0;fontSize=6;" vertex="1" parent="1">
          <mxGeometry x="1383.47" y="220" width="31.98" height="9" as="geometry" />
        </mxCell>
        <mxCell id="3D6CjDRyJNM9ixpx0kuB-17" value="" style="rounded=0;strokeWidth=1;" vertex="1" parent="1">
          <mxGeometry x="1348.54" y="189.94" width="7" height="6" as="geometry" />
        </mxCell>
        <mxCell id="3D6CjDRyJNM9ixpx0kuB-18" value="b1" style="text;strokeColor=none;fillColor=none;align=center;verticalAlign=middle;rounded=0;fontSize=5;" vertex="1" parent="1">
          <mxGeometry x="1348.04" y="189.94" width="8.5" height="6" as="geometry" />
        </mxCell>
        <mxCell id="3D6CjDRyJNM9ixpx0kuB-19" value="" style="rounded=0;strokeWidth=1;" vertex="1" parent="1">
          <mxGeometry x="1384.2599999999998" y="173.5" width="11" height="9" as="geometry" />
        </mxCell>
        <mxCell id="3D6CjDRyJNM9ixpx0kuB-20" value="b1" style="text;strokeColor=none;fillColor=none;align=center;verticalAlign=middle;rounded=0;fontSize=8;" vertex="1" parent="1">
          <mxGeometry x="1386.76" y="174.62" width="8.5" height="5.75" as="geometry" />
        </mxCell>
        <mxCell id="3D6CjDRyJNM9ixpx0kuB-21" value="" style="endArrow=none;rounded=0;fontSize=7;endSize=6;strokeColor=default;strokeWidth=1;" edge="1" parent="1">
          <mxGeometry width="50" height="50" relative="1" as="geometry">
            <mxPoint x="1346.25" y="204.40999999999997" as="sourcePoint" />
            <mxPoint x="1357.25" y="204.40999999999997" as="targetPoint" />
          </mxGeometry>
        </mxCell>
        <mxCell id="3D6CjDRyJNM9ixpx0kuB-22" value="" style="endArrow=none;rounded=0;fontSize=7;endSize=6;strokeColor=default;strokeWidth=1;" edge="1" parent="1">
          <mxGeometry width="50" height="50" relative="1" as="geometry">
            <mxPoint x="1346.54" y="188.6400000000001" as="sourcePoint" />
            <mxPoint x="1356.54" y="188.6400000000001" as="targetPoint" />
          </mxGeometry>
        </mxCell>
        <mxCell id="3D6CjDRyJNM9ixpx0kuB-23" value="" style="rounded=1;" vertex="1" parent="1">
          <mxGeometry x="1380.6100000000001" y="290.38" width="39.63" height="29.5" as="geometry" />
        </mxCell>
        <mxCell id="3D6CjDRyJNM9ixpx0kuB-24" value="" style="curved=1;endArrow=none;endFill=0;endSize=6;strokeWidth=1;" edge="1" parent="1">
          <mxGeometry width="50" height="50" relative="1" as="geometry">
            <mxPoint x="1412.8700000000001" y="343.65999999999997" as="sourcePoint" />
            <mxPoint x="1412.8700000000001" y="323.65999999999997" as="targetPoint" />
            <Array as="points">
              <mxPoint x="1421.8699999999997" y="333.65999999999997" />
              <mxPoint x="1401.8699999999997" y="333.65999999999997" />
            </Array>
          </mxGeometry>
        </mxCell>
        <mxCell id="3D6CjDRyJNM9ixpx0kuB-25" value="" style="curved=1;endArrow=none;endFill=0;" edge="1" parent="1">
          <mxGeometry width="50" height="50" relative="1" as="geometry">
            <mxPoint x="1389.9900000000002" y="343.65999999999997" as="sourcePoint" />
            <mxPoint x="1389.9900000000002" y="323.65999999999997" as="targetPoint" />
            <Array as="points">
              <mxPoint x="1398.99" y="333.65999999999997" />
              <mxPoint x="1378.99" y="333.65999999999997" />
            </Array>
          </mxGeometry>
        </mxCell>
        <mxCell id="3D6CjDRyJNM9ixpx0kuB-26" value="Agg" style="text;strokeColor=none;fillColor=none;align=center;verticalAlign=middle;rounded=0;fontSize=9;fontStyle=1" vertex="1" parent="1">
          <mxGeometry x="1380.61" y="280.13" width="40.06" height="10" as="geometry" />
        </mxCell>
        <mxCell id="3D6CjDRyJNM9ixpx0kuB-27" value="" style="rounded=1;" vertex="1" parent="1">
          <mxGeometry x="1380.61" y="400" width="39.63" height="29.5" as="geometry" />
        </mxCell>
        <mxCell id="3D6CjDRyJNM9ixpx0kuB-28" value="" style="curved=1;endArrow=none;endFill=0;endSize=6;strokeWidth=1;" edge="1" parent="1">
          <mxGeometry width="50" height="50" relative="1" as="geometry">
            <mxPoint x="1412.99" y="454.75" as="sourcePoint" />
            <mxPoint x="1412.99" y="434.75" as="targetPoint" />
            <Array as="points">
              <mxPoint x="1421.99" y="444.75" />
              <mxPoint x="1401.99" y="444.75" />
            </Array>
          </mxGeometry>
        </mxCell>
        <mxCell id="3D6CjDRyJNM9ixpx0kuB-29" value="" style="curved=1;endArrow=none;endFill=0;" edge="1" parent="1">
          <mxGeometry width="50" height="50" relative="1" as="geometry">
            <mxPoint x="1389.8600000000008" y="454.63" as="sourcePoint" />
            <mxPoint x="1389.8600000000008" y="434.63" as="targetPoint" />
            <Array as="points">
              <mxPoint x="1398.8600000000004" y="444.63" />
              <mxPoint x="1378.8600000000004" y="444.63" />
            </Array>
          </mxGeometry>
        </mxCell>
        <mxCell id="3D6CjDRyJNM9ixpx0kuB-30" value="Filter" style="text;strokeColor=none;fillColor=none;align=center;verticalAlign=middle;rounded=0;fontSize=9;fontStyle=1" vertex="1" parent="1">
          <mxGeometry x="1381.17" y="390" width="40.06" height="10" as="geometry" />
        </mxCell>
        <mxCell id="3D6CjDRyJNM9ixpx0kuB-31" value="" style="rounded=0;" vertex="1" parent="1">
          <mxGeometry x="1512.3300000000004" y="310.13" width="59.82" height="39.75" as="geometry" />
        </mxCell>
        <mxCell id="3D6CjDRyJNM9ixpx0kuB-32" value="" style="curved=1;endArrow=none;endFill=0;" edge="1" parent="1">
          <mxGeometry width="50" height="50" relative="1" as="geometry">
            <mxPoint x="1523.3300000000006" y="342.13" as="sourcePoint" />
            <mxPoint x="1523.3300000000006" y="322.13" as="targetPoint" />
            <Array as="points">
              <mxPoint x="1532.3300000000002" y="332.13" />
              <mxPoint x="1512.3300000000002" y="332.13" />
            </Array>
          </mxGeometry>
        </mxCell>
        <mxCell id="3D6CjDRyJNM9ixpx0kuB-33" value="" style="curved=1;endArrow=none;endFill=0;" edge="1" parent="1">
          <mxGeometry width="50" height="50" relative="1" as="geometry">
            <mxPoint x="1543.2400000000005" y="342.88" as="sourcePoint" />
            <mxPoint x="1543.2400000000005" y="322.88" as="targetPoint" />
            <Array as="points">
              <mxPoint x="1552.2400000000002" y="332.88" />
              <mxPoint x="1532.2400000000002" y="332.88" />
            </Array>
          </mxGeometry>
        </mxCell>
        <mxCell id="3D6CjDRyJNM9ixpx0kuB-34" value="" style="curved=1;endArrow=none;endFill=0;" edge="1" parent="1">
          <mxGeometry width="50" height="50" relative="1" as="geometry">
            <mxPoint x="1563.1500000000003" y="342.88" as="sourcePoint" />
            <mxPoint x="1563.1500000000003" y="322.88" as="targetPoint" />
            <Array as="points">
              <mxPoint x="1572.15" y="332.88" />
              <mxPoint x="1552.15" y="332.88" />
            </Array>
          </mxGeometry>
        </mxCell>
        <mxCell id="3D6CjDRyJNM9ixpx0kuB-35" value="线程池" style="text;strokeColor=none;fillColor=none;align=center;verticalAlign=middle;rounded=0;sketch=0;fontSize=10;fontStyle=1" vertex="1" parent="1">
          <mxGeometry x="1522.1200000000001" y="293" width="40.25" height="19" as="geometry" />
        </mxCell>
        <mxCell id="3D6CjDRyJNM9ixpx0kuB-36" value="" style="endArrow=none;dashed=1;dashPattern=1 3;strokeWidth=1;rounded=1;sketch=0;fontSize=8;curved=0;entryX=0;entryY=0;entryDx=0;entryDy=0;" edge="1" parent="1" target="3D6CjDRyJNM9ixpx0kuB-31">
          <mxGeometry width="50" height="50" relative="1" as="geometry">
            <mxPoint x="1432.2" y="220" as="sourcePoint" />
            <mxPoint x="1522.2" y="330" as="targetPoint" />
          </mxGeometry>
        </mxCell>
        <mxCell id="3D6CjDRyJNM9ixpx0kuB-37" value="分配 / 回收" style="text;strokeColor=none;fillColor=none;align=center;verticalAlign=middle;rounded=0;sketch=0;fontSize=8;" vertex="1" parent="1">
          <mxGeometry x="1470.15" y="256.32" width="40" height="12" as="geometry" />
        </mxCell>
        <mxCell id="3D6CjDRyJNM9ixpx0kuB-38" value="" style="endArrow=none;dashed=1;dashPattern=1 3;strokeWidth=1;rounded=1;sketch=0;fontSize=8;curved=0;entryX=0;entryY=0.5;entryDx=0;entryDy=0;" edge="1" parent="1" target="3D6CjDRyJNM9ixpx0kuB-31">
          <mxGeometry width="50" height="50" relative="1" as="geometry">
            <mxPoint x="1432.2" y="330" as="sourcePoint" />
            <mxPoint x="1502.2" y="330" as="targetPoint" />
          </mxGeometry>
        </mxCell>
        <mxCell id="3D6CjDRyJNM9ixpx0kuB-39" value="" style="endArrow=none;dashed=1;dashPattern=1 3;strokeWidth=1;rounded=1;sketch=0;fontSize=8;curved=0;entryX=0;entryY=1;entryDx=0;entryDy=0;" edge="1" parent="1" target="3D6CjDRyJNM9ixpx0kuB-31">
          <mxGeometry width="50" height="50" relative="1" as="geometry">
            <mxPoint x="1432.2" y="450" as="sourcePoint" />
            <mxPoint x="1522.2" y="350" as="targetPoint" />
          </mxGeometry>
        </mxCell>
        <mxCell id="3D6CjDRyJNM9ixpx0kuB-40" value="b: 块数据" style="text;strokeColor=none;fillColor=none;align=center;verticalAlign=middle;rounded=0;sketch=0;fontSize=6;" vertex="1" parent="1">
          <mxGeometry x="1300.24" y="182.5" width="43.88" height="17.75" as="geometry" />
        </mxCell>
        <mxCell id="3D6CjDRyJNM9ixpx0kuB-41" value="w: 窗口数据" style="text;strokeColor=none;fillColor=none;align=center;verticalAlign=middle;rounded=0;sketch=0;fontSize=6;" vertex="1" parent="1">
          <mxGeometry x="1303.4899999999998" y="298.87" width="40.88" height="17.75" as="geometry" />
        </mxCell>
        <mxCell id="3D6CjDRyJNM9ixpx0kuB-42" value="" style="endArrow=openThin;rounded=1;sketch=0;fontSize=8;curved=0;endFill=0;entryX=0.875;entryY=0.5;entryDx=0;entryDy=0;entryPerimeter=0;fillColor=#f8cecc;strokeColor=#b85450;strokeWidth=2;" edge="1" parent="1" target="3D6CjDRyJNM9ixpx0kuB-8">
          <mxGeometry width="50" height="50" relative="1" as="geometry">
            <mxPoint x="1480" y="100" as="sourcePoint" />
            <mxPoint x="1420" y="100" as="targetPoint" />
          </mxGeometry>
        </mxCell>
        <mxCell id="3D6CjDRyJNM9ixpx0kuB-43" value="" style="endArrow=openThin;rounded=1;sketch=0;fontSize=8;curved=0;exitX=0.55;exitY=0.95;exitDx=0;exitDy=0;exitPerimeter=0;endFill=0;fillColor=#f8cecc;strokeColor=#b85450;strokeWidth=2;" edge="1" parent="1" source="3D6CjDRyJNM9ixpx0kuB-8">
          <mxGeometry width="50" height="50" relative="1" as="geometry">
            <mxPoint x="1061.49" y="326" as="sourcePoint" />
            <mxPoint x="1360" y="170" as="targetPoint" />
          </mxGeometry>
        </mxCell>
        <mxCell id="3D6CjDRyJNM9ixpx0kuB-44" value="" style="endArrow=openThin;rounded=1;sketch=0;fontSize=8;curved=0;endFill=0;exitX=0.5;exitY=1;exitDx=0;exitDy=0;fillColor=#f8cecc;strokeColor=#b85450;strokeWidth=2;" edge="1" parent="1" source="3D6CjDRyJNM9ixpx0kuB-16">
          <mxGeometry width="50" height="50" relative="1" as="geometry">
            <mxPoint x="1380" y="226.88" as="sourcePoint" />
            <mxPoint x="1370" y="280" as="targetPoint" />
          </mxGeometry>
        </mxCell>
        <mxCell id="3D6CjDRyJNM9ixpx0kuB-45" value="" style="endArrow=openThin;rounded=1;sketch=0;fontSize=8;curved=0;endFill=0;fillColor=#f8cecc;strokeColor=#b85450;strokeWidth=2;" edge="1" parent="1">
          <mxGeometry width="50" height="50" relative="1" as="geometry">
            <mxPoint x="1400" y="340" as="sourcePoint" />
            <mxPoint x="1370" y="390" as="targetPoint" />
          </mxGeometry>
        </mxCell>
        <mxCell id="3D6CjDRyJNM9ixpx0kuB-46" value=".&#xa;.&#xa;." style="text;strokeColor=none;fillColor=none;align=center;verticalAlign=middle;rounded=0;sketch=0;fontSize=5;" vertex="1" parent="1">
          <mxGeometry x="1347.54" y="173.5" width="9" height="10" as="geometry" />
        </mxCell>
        <mxCell id="3D6CjDRyJNM9ixpx0kuB-47" value="" style="endArrow=none;dashed=1;rounded=1;sketch=0;fontSize=6;curved=0;entryX=0.5;entryY=0;entryDx=0;entryDy=0;exitX=0.5;exitY=1;exitDx=0;exitDy=0;" edge="1" parent="1" source="3D6CjDRyJNM9ixpx0kuB-10" target="3D6CjDRyJNM9ixpx0kuB-10">
          <mxGeometry width="50" height="50" relative="1" as="geometry">
            <mxPoint x="1450" y="210" as="sourcePoint" />
            <mxPoint x="1500" y="160" as="targetPoint" />
          </mxGeometry>
        </mxCell>
        <mxCell id="3D6CjDRyJNM9ixpx0kuB-48" value="" style="rounded=0;strokeWidth=1;" vertex="1" parent="1">
          <mxGeometry x="1348.54" y="197.1" width="7" height="6" as="geometry" />
        </mxCell>
        <mxCell id="3D6CjDRyJNM9ixpx0kuB-49" value="b3" style="text;strokeColor=none;fillColor=none;align=center;verticalAlign=middle;rounded=0;fontSize=5;" vertex="1" parent="1">
          <mxGeometry x="1347.79" y="197.1" width="8.5" height="6" as="geometry" />
        </mxCell>
        <mxCell id="3D6CjDRyJNM9ixpx0kuB-50" value="" style="shape=partialRectangle;top=0;bottom=0;fillColor=none;" vertex="1" parent="1">
          <mxGeometry x="1360.66" y="177.81" width="10" height="26" as="geometry" />
        </mxCell>
        <mxCell id="3D6CjDRyJNM9ixpx0kuB-51" value="" style="rounded=0;strokeWidth=1;" vertex="1" parent="1">
          <mxGeometry x="1362.45" y="189.94" width="7" height="6" as="geometry" />
        </mxCell>
        <mxCell id="3D6CjDRyJNM9ixpx0kuB-52" value="b2" style="text;strokeColor=none;fillColor=none;align=center;verticalAlign=middle;rounded=0;fontSize=5;" vertex="1" parent="1">
          <mxGeometry x="1361.95" y="189.94" width="8.5" height="6" as="geometry" />
        </mxCell>
        <mxCell id="3D6CjDRyJNM9ixpx0kuB-53" value="" style="endArrow=none;rounded=0;fontSize=7;endSize=6;strokeColor=default;strokeWidth=1;" edge="1" parent="1">
          <mxGeometry width="50" height="50" relative="1" as="geometry">
            <mxPoint x="1360.16" y="204.40999999999997" as="sourcePoint" />
            <mxPoint x="1371.16" y="204.40999999999997" as="targetPoint" />
          </mxGeometry>
        </mxCell>
        <mxCell id="3D6CjDRyJNM9ixpx0kuB-54" value="" style="endArrow=none;rounded=0;fontSize=7;endSize=6;strokeColor=default;strokeWidth=1;" edge="1" parent="1">
          <mxGeometry width="50" height="50" relative="1" as="geometry">
            <mxPoint x="1360.45" y="188.64" as="sourcePoint" />
            <mxPoint x="1370.45" y="188.64" as="targetPoint" />
          </mxGeometry>
        </mxCell>
        <mxCell id="3D6CjDRyJNM9ixpx0kuB-55" value=".&#xa;.&#xa;." style="text;strokeColor=none;fillColor=none;align=center;verticalAlign=middle;rounded=0;sketch=0;fontSize=5;" vertex="1" parent="1">
          <mxGeometry x="1361.2" y="173.5" width="9" height="10" as="geometry" />
        </mxCell>
        <mxCell id="3D6CjDRyJNM9ixpx0kuB-56" value="" style="rounded=0;strokeWidth=1;" vertex="1" parent="1">
          <mxGeometry x="1362.45" y="197.1" width="7" height="6" as="geometry" />
        </mxCell>
        <mxCell id="3D6CjDRyJNM9ixpx0kuB-57" value="bk" style="text;strokeColor=none;fillColor=none;align=center;verticalAlign=middle;rounded=0;fontSize=5;" vertex="1" parent="1">
          <mxGeometry x="1361.95" y="197.1" width="8.5" height="6" as="geometry" />
        </mxCell>
        <mxCell id="3D6CjDRyJNM9ixpx0kuB-58" value="" style="rounded=0;strokeWidth=1;" vertex="1" parent="1">
          <mxGeometry x="1361.9499999999998" y="137.32" width="8" height="6" as="geometry" />
        </mxCell>
        <mxCell id="3D6CjDRyJNM9ixpx0kuB-59" value="b1" style="text;strokeColor=none;fillColor=none;align=center;verticalAlign=middle;rounded=0;fontSize=5;" vertex="1" parent="1">
          <mxGeometry x="1361.6999999999998" y="137.32" width="8.5" height="6" as="geometry" />
        </mxCell>
        <mxCell id="3D6CjDRyJNM9ixpx0kuB-60" value="" style="rounded=0;strokeWidth=1;" vertex="1" parent="1">
          <mxGeometry x="1361.9499999999998" y="144.48" width="8" height="6" as="geometry" />
        </mxCell>
        <mxCell id="3D6CjDRyJNM9ixpx0kuB-61" value="b3" style="text;strokeColor=none;fillColor=none;align=center;verticalAlign=middle;rounded=0;fontSize=5;" vertex="1" parent="1">
          <mxGeometry x="1362.1599999999999" y="144.48" width="8.5" height="6" as="geometry" />
        </mxCell>
        <mxCell id="3D6CjDRyJNM9ixpx0kuB-62" value="数据源3" style="rounded=0;fontSize=7;strokeWidth=1;" vertex="1" parent="1">
          <mxGeometry x="1487.95" y="105" width="30" height="10" as="geometry" />
        </mxCell>
        <mxCell id="3D6CjDRyJNM9ixpx0kuB-63" value="" style="endArrow=none;rounded=0;fontSize=3;entryX=0.006;entryY=0.865;entryDx=0;entryDy=0;entryPerimeter=0;strokeWidth=0.3;startArrow=open;startFill=0;" edge="1" parent="1" target="3D6CjDRyJNM9ixpx0kuB-1">
          <mxGeometry width="50" height="50" relative="1" as="geometry">
            <mxPoint x="1350" y="170" as="sourcePoint" />
            <mxPoint x="1350" y="160" as="targetPoint" />
          </mxGeometry>
        </mxCell>
        <mxCell id="3D6CjDRyJNM9ixpx0kuB-64" value="" style="endArrow=none;rounded=0;fontSize=3;entryX=0;entryY=1;entryDx=0;entryDy=0;strokeWidth=0.3;startArrow=open;startFill=0;" edge="1" parent="1">
          <mxGeometry width="50" height="50" relative="1" as="geometry">
            <mxPoint x="1370" y="170" as="sourcePoint" />
            <mxPoint x="1384.9899999999998" y="150.4799999999999" as="targetPoint" />
          </mxGeometry>
        </mxCell>
        <mxCell id="3D6CjDRyJNM9ixpx0kuB-65" value="" style="endArrow=none;rounded=0;fontSize=3;entryX=0.5;entryY=1;entryDx=0;entryDy=0;strokeWidth=0.3;startArrow=open;startFill=0;" edge="1" parent="1" target="3D6CjDRyJNM9ixpx0kuB-82">
          <mxGeometry width="50" height="50" relative="1" as="geometry">
            <mxPoint x="1357.5900000000001" y="287.25" as="sourcePoint" />
            <mxPoint x="1365.594" y="267.24999999999994" as="targetPoint" />
          </mxGeometry>
        </mxCell>
        <mxCell id="3D6CjDRyJNM9ixpx0kuB-66" value="" style="endArrow=none;rounded=0;fontSize=3;entryX=0;entryY=1;entryDx=0;entryDy=0;strokeWidth=0.3;startArrow=open;startFill=0;" edge="1" parent="1" target="3D6CjDRyJNM9ixpx0kuB-88">
          <mxGeometry width="50" height="50" relative="1" as="geometry">
            <mxPoint x="1376.3600000000004" y="287" as="sourcePoint" />
            <mxPoint x="1384.3639999999998" y="266.99999999999994" as="targetPoint" />
          </mxGeometry>
        </mxCell>
        <mxCell id="3D6CjDRyJNM9ixpx0kuB-67" value="" style="endArrow=none;rounded=0;fontSize=3;strokeWidth=0.3;startArrow=open;startFill=0;" edge="1" parent="1">
          <mxGeometry width="50" height="50" relative="1" as="geometry">
            <mxPoint x="1359.9500000000003" y="390" as="sourcePoint" />
            <mxPoint x="1370" y="370" as="targetPoint" />
          </mxGeometry>
        </mxCell>
        <mxCell id="3D6CjDRyJNM9ixpx0kuB-68" value="" style="endArrow=none;rounded=0;fontSize=3;strokeWidth=0.3;startArrow=open;startFill=0;" edge="1" parent="1">
          <mxGeometry width="50" height="50" relative="1" as="geometry">
            <mxPoint x="1380.6100000000001" y="390" as="sourcePoint" />
            <mxPoint x="1390" y="370" as="targetPoint" />
          </mxGeometry>
        </mxCell>
        <mxCell id="3D6CjDRyJNM9ixpx0kuB-69" value="" style="rounded=0;strokeWidth=1;" vertex="1" parent="1">
          <mxGeometry x="1384.4299999999998" y="187.28" width="11" height="9" as="geometry" />
        </mxCell>
        <mxCell id="3D6CjDRyJNM9ixpx0kuB-70" value="b3" style="text;strokeColor=none;fillColor=none;align=center;verticalAlign=middle;rounded=0;fontSize=8;" vertex="1" parent="1">
          <mxGeometry x="1386.76" y="188.5" width="8.5" height="5.75" as="geometry" />
        </mxCell>
        <mxCell id="3D6CjDRyJNM9ixpx0kuB-71" value="" style="rounded=0;strokeWidth=1;" vertex="1" parent="1">
          <mxGeometry x="1404.1099999999997" y="173.5" width="11" height="9" as="geometry" />
        </mxCell>
        <mxCell id="3D6CjDRyJNM9ixpx0kuB-72" value="b2" style="text;strokeColor=none;fillColor=none;align=center;verticalAlign=middle;rounded=0;fontSize=8;" vertex="1" parent="1">
          <mxGeometry x="1406.33" y="174.62" width="8.5" height="5.75" as="geometry" />
        </mxCell>
        <mxCell id="3D6CjDRyJNM9ixpx0kuB-73" value="" style="rounded=0;strokeWidth=1;" vertex="1" parent="1">
          <mxGeometry x="1404.1099999999997" y="187.28" width="11" height="9" as="geometry" />
        </mxCell>
        <mxCell id="3D6CjDRyJNM9ixpx0kuB-74" value="bk" style="text;strokeColor=none;fillColor=none;align=center;verticalAlign=middle;rounded=0;fontSize=8;" vertex="1" parent="1">
          <mxGeometry x="1406.33" y="188.9" width="8.5" height="5.75" as="geometry" />
        </mxCell>
        <mxCell id="3D6CjDRyJNM9ixpx0kuB-75" value="" style="rounded=0;sketch=0;fontSize=6;dashed=1;" vertex="1" parent="1">
          <mxGeometry x="1383.7299999999998" y="136.16" width="9" height="16" as="geometry" />
        </mxCell>
        <mxCell id="3D6CjDRyJNM9ixpx0kuB-76" value="" style="rounded=0;sketch=0;fontSize=6;dashed=1;" vertex="1" parent="1">
          <mxGeometry x="1384.2299999999998" y="136.16" width="11" height="16" as="geometry" />
        </mxCell>
        <mxCell id="3D6CjDRyJNM9ixpx0kuB-77" value="" style="rounded=0;strokeWidth=1;" vertex="1" parent="1">
          <mxGeometry x="1385.7299999999998" y="137.32" width="8" height="6" as="geometry" />
        </mxCell>
        <mxCell id="3D6CjDRyJNM9ixpx0kuB-78" value="b2" style="text;strokeColor=none;fillColor=none;align=center;verticalAlign=middle;rounded=0;fontSize=5;" vertex="1" parent="1">
          <mxGeometry x="1385.9099999999999" y="137.32" width="8.5" height="6" as="geometry" />
        </mxCell>
        <mxCell id="3D6CjDRyJNM9ixpx0kuB-79" value="" style="rounded=0;strokeWidth=1;" vertex="1" parent="1">
          <mxGeometry x="1385.7299999999998" y="144.48" width="8" height="6" as="geometry" />
        </mxCell>
        <mxCell id="3D6CjDRyJNM9ixpx0kuB-80" value="bk" style="text;strokeColor=none;fillColor=none;align=center;verticalAlign=middle;rounded=0;fontSize=5;" vertex="1" parent="1">
          <mxGeometry x="1385.7299999999998" y="144.48" width="8.5" height="6" as="geometry" />
        </mxCell>
        <mxCell id="3D6CjDRyJNM9ixpx0kuB-81" value="" style="rounded=0;sketch=0;fontSize=6;dashed=1;" vertex="1" parent="1">
          <mxGeometry x="1364.33" y="246.98" width="9" height="16" as="geometry" />
        </mxCell>
        <mxCell id="3D6CjDRyJNM9ixpx0kuB-82" value="" style="rounded=0;sketch=0;fontSize=6;dashed=1;" vertex="1" parent="1">
          <mxGeometry x="1364.83" y="246.98" width="11" height="16" as="geometry" />
        </mxCell>
        <mxCell id="3D6CjDRyJNM9ixpx0kuB-83" value="" style="rounded=0;strokeWidth=1;" vertex="1" parent="1">
          <mxGeometry x="1366.33" y="248.14000000000001" width="8" height="6" as="geometry" />
        </mxCell>
        <mxCell id="3D6CjDRyJNM9ixpx0kuB-84" value="w1" style="text;strokeColor=none;fillColor=none;align=center;verticalAlign=middle;rounded=0;fontSize=5;" vertex="1" parent="1">
          <mxGeometry x="1366.55" y="248.14" width="8.5" height="6" as="geometry" />
        </mxCell>
        <mxCell id="3D6CjDRyJNM9ixpx0kuB-85" value="" style="rounded=0;strokeWidth=1;" vertex="1" parent="1">
          <mxGeometry x="1366.33" y="255.29999999999998" width="8" height="6" as="geometry" />
        </mxCell>
        <mxCell id="3D6CjDRyJNM9ixpx0kuB-86" value="w3" style="text;strokeColor=none;fillColor=none;align=center;verticalAlign=middle;rounded=0;fontSize=5;" vertex="1" parent="1">
          <mxGeometry x="1366.33" y="255.3" width="8.5" height="6" as="geometry" />
        </mxCell>
        <mxCell id="3D6CjDRyJNM9ixpx0kuB-87" value="" style="rounded=0;sketch=0;fontSize=6;dashed=1;" vertex="1" parent="1">
          <mxGeometry x="1389.06" y="246.98" width="9" height="16" as="geometry" />
        </mxCell>
        <mxCell id="3D6CjDRyJNM9ixpx0kuB-88" value="" style="rounded=0;sketch=0;fontSize=6;dashed=1;" vertex="1" parent="1">
          <mxGeometry x="1389.56" y="246.98" width="11" height="16" as="geometry" />
        </mxCell>
        <mxCell id="3D6CjDRyJNM9ixpx0kuB-89" value="" style="rounded=0;strokeWidth=1;" vertex="1" parent="1">
          <mxGeometry x="1391.06" y="248.14000000000001" width="8" height="6" as="geometry" />
        </mxCell>
        <mxCell id="3D6CjDRyJNM9ixpx0kuB-90" value="w2" style="text;strokeColor=none;fillColor=none;align=center;verticalAlign=middle;rounded=0;fontSize=5;" vertex="1" parent="1">
          <mxGeometry x="1391.06" y="248.14" width="8.5" height="6" as="geometry" />
        </mxCell>
        <mxCell id="3D6CjDRyJNM9ixpx0kuB-91" value="" style="rounded=0;strokeWidth=1;" vertex="1" parent="1">
          <mxGeometry x="1391.06" y="255.29999999999998" width="8" height="6" as="geometry" />
        </mxCell>
        <mxCell id="3D6CjDRyJNM9ixpx0kuB-92" value="wk" style="text;strokeColor=none;fillColor=none;align=center;verticalAlign=middle;rounded=0;fontSize=5;" vertex="1" parent="1">
          <mxGeometry x="1391.06" y="255.3" width="8.5" height="6" as="geometry" />
        </mxCell>
        <mxCell id="3D6CjDRyJNM9ixpx0kuB-93" value="" style="shape=partialRectangle;top=0;bottom=0;fillColor=none;" vertex="1" parent="1">
          <mxGeometry x="1349.4499999999998" y="298.37" width="10" height="26" as="geometry" />
        </mxCell>
        <mxCell id="3D6CjDRyJNM9ixpx0kuB-94" value="" style="rounded=0;strokeWidth=1;" vertex="1" parent="1">
          <mxGeometry x="1351.2399999999998" y="310.5" width="7" height="6" as="geometry" />
        </mxCell>
        <mxCell id="3D6CjDRyJNM9ixpx0kuB-95" value="w1" style="text;strokeColor=none;fillColor=none;align=center;verticalAlign=middle;rounded=0;fontSize=5;" vertex="1" parent="1">
          <mxGeometry x="1350.9499999999998" y="310.50000000000006" width="8.5" height="6" as="geometry" />
        </mxCell>
        <mxCell id="3D6CjDRyJNM9ixpx0kuB-96" value="" style="endArrow=none;rounded=0;fontSize=7;endSize=6;strokeColor=default;strokeWidth=1;" edge="1" parent="1">
          <mxGeometry width="50" height="50" relative="1" as="geometry">
            <mxPoint x="1348.9499999999998" y="324.97" as="sourcePoint" />
            <mxPoint x="1359.9499999999998" y="324.97" as="targetPoint" />
          </mxGeometry>
        </mxCell>
        <mxCell id="3D6CjDRyJNM9ixpx0kuB-97" value="" style="endArrow=none;rounded=0;fontSize=7;endSize=6;strokeColor=default;strokeWidth=1;" edge="1" parent="1">
          <mxGeometry width="50" height="50" relative="1" as="geometry">
            <mxPoint x="1349.2399999999998" y="309.20000000000005" as="sourcePoint" />
            <mxPoint x="1359.2399999999998" y="309.20000000000005" as="targetPoint" />
          </mxGeometry>
        </mxCell>
        <mxCell id="3D6CjDRyJNM9ixpx0kuB-98" value=".&#xa;.&#xa;." style="text;strokeColor=none;fillColor=none;align=center;verticalAlign=middle;rounded=0;sketch=0;fontSize=5;" vertex="1" parent="1">
          <mxGeometry x="1349.8799999999999" y="294.21000000000004" width="9" height="10" as="geometry" />
        </mxCell>
        <mxCell id="3D6CjDRyJNM9ixpx0kuB-99" value="" style="rounded=0;strokeWidth=1;" vertex="1" parent="1">
          <mxGeometry x="1351.2399999999998" y="317.66" width="7" height="6" as="geometry" />
        </mxCell>
        <mxCell id="3D6CjDRyJNM9ixpx0kuB-100" value="w3" style="text;strokeColor=none;fillColor=none;align=center;verticalAlign=middle;rounded=0;fontSize=5;" vertex="1" parent="1">
          <mxGeometry x="1350.6699999999998" y="317.66" width="8.5" height="6" as="geometry" />
        </mxCell>
        <mxCell id="3D6CjDRyJNM9ixpx0kuB-101" value="" style="shape=partialRectangle;top=0;bottom=0;fillColor=none;" vertex="1" parent="1">
          <mxGeometry x="1364.33" y="298.37" width="10" height="26" as="geometry" />
        </mxCell>
        <mxCell id="3D6CjDRyJNM9ixpx0kuB-102" value="" style="rounded=0;strokeWidth=1;" vertex="1" parent="1">
          <mxGeometry x="1366.12" y="310.5" width="7" height="6" as="geometry" />
        </mxCell>
        <mxCell id="3D6CjDRyJNM9ixpx0kuB-103" value="w2" style="text;strokeColor=none;fillColor=none;align=center;verticalAlign=middle;rounded=0;fontSize=5;" vertex="1" parent="1">
          <mxGeometry x="1365.55" y="310.62" width="8.5" height="6" as="geometry" />
        </mxCell>
        <mxCell id="3D6CjDRyJNM9ixpx0kuB-104" value="" style="endArrow=none;rounded=0;fontSize=7;endSize=6;strokeColor=default;strokeWidth=1;" edge="1" parent="1">
          <mxGeometry width="50" height="50" relative="1" as="geometry">
            <mxPoint x="1363.83" y="324.97" as="sourcePoint" />
            <mxPoint x="1374.83" y="324.97" as="targetPoint" />
          </mxGeometry>
        </mxCell>
        <mxCell id="3D6CjDRyJNM9ixpx0kuB-105" value="" style="endArrow=none;rounded=0;fontSize=7;endSize=6;strokeColor=default;strokeWidth=1;" edge="1" parent="1">
          <mxGeometry width="50" height="50" relative="1" as="geometry">
            <mxPoint x="1364.12" y="309.20000000000005" as="sourcePoint" />
            <mxPoint x="1374.12" y="309.20000000000005" as="targetPoint" />
          </mxGeometry>
        </mxCell>
        <mxCell id="3D6CjDRyJNM9ixpx0kuB-106" value=".&#xa;.&#xa;." style="text;strokeColor=none;fillColor=none;align=center;verticalAlign=middle;rounded=0;sketch=0;fontSize=5;" vertex="1" parent="1">
          <mxGeometry x="1364.76" y="294.21000000000004" width="9" height="10" as="geometry" />
        </mxCell>
        <mxCell id="3D6CjDRyJNM9ixpx0kuB-107" value="" style="rounded=0;strokeWidth=1;" vertex="1" parent="1">
          <mxGeometry x="1366.12" y="317.66" width="7" height="6" as="geometry" />
        </mxCell>
        <mxCell id="3D6CjDRyJNM9ixpx0kuB-108" value="wk" style="text;strokeColor=none;fillColor=none;align=center;verticalAlign=middle;rounded=0;fontSize=5;" vertex="1" parent="1">
          <mxGeometry x="1365.5099999999998" y="317.66" width="8.5" height="6" as="geometry" />
        </mxCell>
        <mxCell id="3D6CjDRyJNM9ixpx0kuB-109" value="：批次数据" style="text;strokeColor=none;fillColor=none;align=center;verticalAlign=middle;rounded=0;fontSize=6;" vertex="1" parent="1">
          <mxGeometry x="1319.88" y="135" width="33.37" height="14" as="geometry" />
        </mxCell>
        <mxCell id="3D6CjDRyJNM9ixpx0kuB-110" value="" style="rounded=0;strokeWidth=1;" vertex="1" parent="1">
          <mxGeometry x="1384.9999999999998" y="293.09" width="11" height="9" as="geometry" />
        </mxCell>
        <mxCell id="3D6CjDRyJNM9ixpx0kuB-111" value="w1" style="text;strokeColor=none;fillColor=none;align=center;verticalAlign=middle;rounded=0;fontSize=8;" vertex="1" parent="1">
          <mxGeometry x="1386.93" y="294.21" width="8.5" height="5.75" as="geometry" />
        </mxCell>
        <mxCell id="3D6CjDRyJNM9ixpx0kuB-112" value="" style="endArrow=none;dashed=1;rounded=1;sketch=0;fontSize=6;curved=0;entryX=0.5;entryY=0;entryDx=0;entryDy=0;exitX=0.5;exitY=1;exitDx=0;exitDy=0;" edge="1" parent="1">
          <mxGeometry width="50" height="50" relative="1" as="geometry">
            <mxPoint x="1400.195" y="319.0899999999999" as="sourcePoint" />
            <mxPoint x="1400.195" y="289.5899999999999" as="targetPoint" />
          </mxGeometry>
        </mxCell>
        <mxCell id="3D6CjDRyJNM9ixpx0kuB-113" value="" style="rounded=0;strokeWidth=1;" vertex="1" parent="1">
          <mxGeometry x="1385.1699999999998" y="306.86999999999995" width="11" height="9" as="geometry" />
        </mxCell>
        <mxCell id="3D6CjDRyJNM9ixpx0kuB-114" value="w3" style="text;strokeColor=none;fillColor=none;align=center;verticalAlign=middle;rounded=0;fontSize=8;" vertex="1" parent="1">
          <mxGeometry x="1386.93" y="307.98999999999995" width="8.5" height="5.75" as="geometry" />
        </mxCell>
        <mxCell id="3D6CjDRyJNM9ixpx0kuB-115" value="" style="rounded=0;strokeWidth=1;" vertex="1" parent="1">
          <mxGeometry x="1404.8499999999997" y="293.09" width="11" height="9" as="geometry" />
        </mxCell>
        <mxCell id="3D6CjDRyJNM9ixpx0kuB-116" value="w2" style="text;strokeColor=none;fillColor=none;align=center;verticalAlign=middle;rounded=0;fontSize=8;" vertex="1" parent="1">
          <mxGeometry x="1406.5499999999997" y="294.71" width="8.5" height="5.75" as="geometry" />
        </mxCell>
        <mxCell id="3D6CjDRyJNM9ixpx0kuB-117" value="" style="rounded=0;strokeWidth=1;" vertex="1" parent="1">
          <mxGeometry x="1404.8499999999997" y="306.86999999999995" width="11" height="9" as="geometry" />
        </mxCell>
        <mxCell id="3D6CjDRyJNM9ixpx0kuB-118" value="wk" style="text;strokeColor=none;fillColor=none;align=center;verticalAlign=middle;rounded=0;fontSize=8;" vertex="1" parent="1">
          <mxGeometry x="1406.55" y="307.98999999999995" width="8.5" height="5.75" as="geometry" />
        </mxCell>
        <mxCell id="3D6CjDRyJNM9ixpx0kuB-119" value="" style="shape=partialRectangle;top=0;bottom=0;fillColor=none;" vertex="1" parent="1">
          <mxGeometry x="1349.8799999999999" y="410" width="10" height="26" as="geometry" />
        </mxCell>
        <mxCell id="3D6CjDRyJNM9ixpx0kuB-120" value="" style="rounded=0;strokeWidth=1;" vertex="1" parent="1">
          <mxGeometry x="1351.6699999999998" y="422.13" width="7" height="6" as="geometry" />
        </mxCell>
        <mxCell id="3D6CjDRyJNM9ixpx0kuB-121" value="w1" style="text;strokeColor=none;fillColor=none;align=center;verticalAlign=middle;rounded=0;fontSize=5;" vertex="1" parent="1">
          <mxGeometry x="1351.3799999999999" y="422.13000000000005" width="8.5" height="6" as="geometry" />
        </mxCell>
        <mxCell id="3D6CjDRyJNM9ixpx0kuB-122" value="" style="endArrow=none;rounded=0;fontSize=7;endSize=6;strokeColor=default;strokeWidth=1;" edge="1" parent="1">
          <mxGeometry width="50" height="50" relative="1" as="geometry">
            <mxPoint x="1349.3799999999999" y="436.6" as="sourcePoint" />
            <mxPoint x="1360.3799999999999" y="436.6" as="targetPoint" />
          </mxGeometry>
        </mxCell>
        <mxCell id="3D6CjDRyJNM9ixpx0kuB-123" value="" style="endArrow=none;rounded=0;fontSize=7;endSize=6;strokeColor=default;strokeWidth=1;" edge="1" parent="1">
          <mxGeometry width="50" height="50" relative="1" as="geometry">
            <mxPoint x="1349.6699999999998" y="420.83000000000004" as="sourcePoint" />
            <mxPoint x="1359.6699999999998" y="420.83000000000004" as="targetPoint" />
          </mxGeometry>
        </mxCell>
        <mxCell id="3D6CjDRyJNM9ixpx0kuB-124" value=".&#xa;.&#xa;." style="text;strokeColor=none;fillColor=none;align=center;verticalAlign=middle;rounded=0;sketch=0;fontSize=5;" vertex="1" parent="1">
          <mxGeometry x="1350.4199999999998" y="407.07000000000005" width="9" height="10" as="geometry" />
        </mxCell>
        <mxCell id="3D6CjDRyJNM9ixpx0kuB-125" value="" style="rounded=0;strokeWidth=1;" vertex="1" parent="1">
          <mxGeometry x="1351.6699999999998" y="429.28999999999996" width="7" height="6" as="geometry" />
        </mxCell>
        <mxCell id="3D6CjDRyJNM9ixpx0kuB-126" value="w3" style="text;strokeColor=none;fillColor=none;align=center;verticalAlign=middle;rounded=0;fontSize=5;" vertex="1" parent="1">
          <mxGeometry x="1350.9499999999998" y="429.29" width="8.5" height="6" as="geometry" />
        </mxCell>
        <mxCell id="3D6CjDRyJNM9ixpx0kuB-127" value="" style="shape=partialRectangle;top=0;bottom=0;fillColor=none;" vertex="1" parent="1">
          <mxGeometry x="1364.76" y="410" width="10" height="26" as="geometry" />
        </mxCell>
        <mxCell id="3D6CjDRyJNM9ixpx0kuB-128" value="" style="rounded=0;strokeWidth=1;" vertex="1" parent="1">
          <mxGeometry x="1366.55" y="422.13" width="7" height="6" as="geometry" />
        </mxCell>
        <mxCell id="3D6CjDRyJNM9ixpx0kuB-129" value="w2" style="text;strokeColor=none;fillColor=none;align=center;verticalAlign=middle;rounded=0;fontSize=5;" vertex="1" parent="1">
          <mxGeometry x="1365.8" y="422.13000000000005" width="8.5" height="6" as="geometry" />
        </mxCell>
        <mxCell id="3D6CjDRyJNM9ixpx0kuB-130" value="" style="endArrow=none;rounded=0;fontSize=7;endSize=6;strokeColor=default;strokeWidth=1;" edge="1" parent="1">
          <mxGeometry width="50" height="50" relative="1" as="geometry">
            <mxPoint x="1364.26" y="436.6" as="sourcePoint" />
            <mxPoint x="1375.26" y="436.6" as="targetPoint" />
          </mxGeometry>
        </mxCell>
        <mxCell id="3D6CjDRyJNM9ixpx0kuB-131" value="" style="endArrow=none;rounded=0;fontSize=7;endSize=6;strokeColor=default;strokeWidth=1;" edge="1" parent="1">
          <mxGeometry width="50" height="50" relative="1" as="geometry">
            <mxPoint x="1364.55" y="420.83000000000004" as="sourcePoint" />
            <mxPoint x="1374.55" y="420.83000000000004" as="targetPoint" />
          </mxGeometry>
        </mxCell>
        <mxCell id="3D6CjDRyJNM9ixpx0kuB-132" value=".&#xa;.&#xa;." style="text;strokeColor=none;fillColor=none;align=center;verticalAlign=middle;rounded=0;sketch=0;fontSize=5;" vertex="1" parent="1">
          <mxGeometry x="1365.01" y="407.07000000000005" width="9" height="10" as="geometry" />
        </mxCell>
        <mxCell id="3D6CjDRyJNM9ixpx0kuB-133" value="" style="rounded=0;strokeWidth=1;" vertex="1" parent="1">
          <mxGeometry x="1366.55" y="429.28999999999996" width="7" height="6" as="geometry" />
        </mxCell>
        <mxCell id="3D6CjDRyJNM9ixpx0kuB-134" value="wk" style="text;strokeColor=none;fillColor=none;align=center;verticalAlign=middle;rounded=0;fontSize=5;" vertex="1" parent="1">
          <mxGeometry x="1365.9499999999998" y="429.29" width="8.5" height="6" as="geometry" />
        </mxCell>
        <mxCell id="3D6CjDRyJNM9ixpx0kuB-135" value="" style="rounded=0;strokeWidth=1;" vertex="1" parent="1">
          <mxGeometry x="1385.2199999999998" y="403.28999999999996" width="11" height="9" as="geometry" />
        </mxCell>
        <mxCell id="3D6CjDRyJNM9ixpx0kuB-136" value="w1" style="text;strokeColor=none;fillColor=none;align=center;verticalAlign=middle;rounded=0;fontSize=8;" vertex="1" parent="1">
          <mxGeometry x="1387.5" y="404.24999999999994" width="8.5" height="5.75" as="geometry" />
        </mxCell>
        <mxCell id="3D6CjDRyJNM9ixpx0kuB-137" value="" style="endArrow=none;dashed=1;rounded=1;sketch=0;fontSize=6;curved=0;entryX=0.5;entryY=0;entryDx=0;entryDy=0;exitX=0.5;exitY=1;exitDx=0;exitDy=0;" edge="1" parent="1">
          <mxGeometry width="50" height="50" relative="1" as="geometry">
            <mxPoint x="1400.415" y="429.28999999999996" as="sourcePoint" />
            <mxPoint x="1400.415" y="399.78999999999996" as="targetPoint" />
          </mxGeometry>
        </mxCell>
        <mxCell id="3D6CjDRyJNM9ixpx0kuB-138" value="" style="rounded=0;strokeWidth=1;" vertex="1" parent="1">
          <mxGeometry x="1385.3899999999999" y="417.06999999999994" width="11" height="9" as="geometry" />
        </mxCell>
        <mxCell id="3D6CjDRyJNM9ixpx0kuB-139" value="w3" style="text;strokeColor=none;fillColor=none;align=center;verticalAlign=middle;rounded=0;fontSize=8;" vertex="1" parent="1">
          <mxGeometry x="1387.5000000000002" y="418.18999999999994" width="8.5" height="5.75" as="geometry" />
        </mxCell>
        <mxCell id="3D6CjDRyJNM9ixpx0kuB-140" value="" style="rounded=0;strokeWidth=1;" vertex="1" parent="1">
          <mxGeometry x="1405.0699999999997" y="403.28999999999996" width="11" height="9" as="geometry" />
        </mxCell>
        <mxCell id="3D6CjDRyJNM9ixpx0kuB-141" value="w2" style="text;strokeColor=none;fillColor=none;align=center;verticalAlign=middle;rounded=0;fontSize=8;" vertex="1" parent="1">
          <mxGeometry x="1406.95" y="404.24999999999994" width="8.5" height="5.75" as="geometry" />
        </mxCell>
        <mxCell id="3D6CjDRyJNM9ixpx0kuB-142" value="" style="rounded=0;strokeWidth=1;" vertex="1" parent="1">
          <mxGeometry x="1405.0699999999997" y="417.06999999999994" width="11" height="9" as="geometry" />
        </mxCell>
        <mxCell id="3D6CjDRyJNM9ixpx0kuB-143" value="wk" style="text;strokeColor=none;fillColor=none;align=center;verticalAlign=middle;rounded=0;fontSize=8;" vertex="1" parent="1">
          <mxGeometry x="1406.95" y="418.18999999999994" width="8.5" height="5.75" as="geometry" />
        </mxCell>
        <mxCell id="3D6CjDRyJNM9ixpx0kuB-144" value="" style="rounded=0;sketch=0;fontSize=6;dashed=1;" vertex="1" parent="1">
          <mxGeometry x="1369.9499999999998" y="353.32" width="9" height="16" as="geometry" />
        </mxCell>
        <mxCell id="3D6CjDRyJNM9ixpx0kuB-145" value="" style="rounded=0;sketch=0;fontSize=6;dashed=1;" vertex="1" parent="1">
          <mxGeometry x="1370.4499999999998" y="353.32" width="11" height="16" as="geometry" />
        </mxCell>
        <mxCell id="3D6CjDRyJNM9ixpx0kuB-146" value="" style="rounded=0;strokeWidth=1;" vertex="1" parent="1">
          <mxGeometry x="1371.9499999999998" y="354.47999999999996" width="8" height="6" as="geometry" />
        </mxCell>
        <mxCell id="3D6CjDRyJNM9ixpx0kuB-147" value="w1" style="text;strokeColor=none;fillColor=none;align=center;verticalAlign=middle;rounded=0;fontSize=5;" vertex="1" parent="1">
          <mxGeometry x="1371.9499999999998" y="354.48" width="8.5" height="6" as="geometry" />
        </mxCell>
        <mxCell id="3D6CjDRyJNM9ixpx0kuB-148" value="" style="rounded=0;strokeWidth=1;" vertex="1" parent="1">
          <mxGeometry x="1371.9499999999998" y="361.63999999999993" width="8" height="6" as="geometry" />
        </mxCell>
        <mxCell id="3D6CjDRyJNM9ixpx0kuB-149" value="w3" style="text;strokeColor=none;fillColor=none;align=center;verticalAlign=middle;rounded=0;fontSize=5;" vertex="1" parent="1">
          <mxGeometry x="1371.6999999999998" y="361.64" width="8.5" height="6" as="geometry" />
        </mxCell>
        <mxCell id="3D6CjDRyJNM9ixpx0kuB-150" value="" style="rounded=0;sketch=0;fontSize=6;dashed=1;" vertex="1" parent="1">
          <mxGeometry x="1391.3899999999999" y="353.32" width="9" height="16" as="geometry" />
        </mxCell>
        <mxCell id="3D6CjDRyJNM9ixpx0kuB-151" value="" style="rounded=0;sketch=0;fontSize=6;dashed=1;" vertex="1" parent="1">
          <mxGeometry x="1391.8899999999999" y="353.32" width="11" height="16" as="geometry" />
        </mxCell>
        <mxCell id="3D6CjDRyJNM9ixpx0kuB-152" value="" style="rounded=0;strokeWidth=1;" vertex="1" parent="1">
          <mxGeometry x="1393.3899999999999" y="354.47999999999996" width="8" height="6" as="geometry" />
        </mxCell>
        <mxCell id="3D6CjDRyJNM9ixpx0kuB-153" value="w2" style="text;strokeColor=none;fillColor=none;align=center;verticalAlign=middle;rounded=0;fontSize=5;" vertex="1" parent="1">
          <mxGeometry x="1393.3899999999999" y="354.48" width="8.5" height="6" as="geometry" />
        </mxCell>
        <mxCell id="3D6CjDRyJNM9ixpx0kuB-154" value="" style="rounded=0;strokeWidth=1;" vertex="1" parent="1">
          <mxGeometry x="1393.3899999999999" y="361.63999999999993" width="8" height="6" as="geometry" />
        </mxCell>
        <mxCell id="3D6CjDRyJNM9ixpx0kuB-155" value="wk" style="text;strokeColor=none;fillColor=none;align=center;verticalAlign=middle;rounded=0;fontSize=5;" vertex="1" parent="1">
          <mxGeometry x="1393.1399999999999" y="361.64" width="8.5" height="6" as="geometry" />
        </mxCell>
        <mxCell id="3D6CjDRyJNM9ixpx0kuB-156" value="" style="rounded=0;sketch=0;fontSize=6;dashed=1;" vertex="1" parent="1">
          <mxGeometry x="1310.8799999999999" y="137.16" width="9" height="14" as="geometry" />
        </mxCell>
      </root>
    </mxGraphModel>
  </diagram>
</mxfile>
